<svg width="324" height="98" viewBox="0 0 324 98" fill="none" xmlns="http://www.w3.org/2000/svg">
<g clip-path="url(#clip0_0_5)">
<path fill-rule="evenodd" clip-rule="evenodd" d="M2.19647 0.00709046L23.6812 10.7595C26.3446 11.9171 27.4567 12.7338 27.7968 14.9993L33.407 53.2505C33.747 55.516 32.6278 57.0927 30.7294 58.5273L12.9424 71.4742C12.1207 71.815 11.1573 71.2966 11.0014 70.2384L0.708903 1.76838C0.545979 0.703083 1.30393 -0.0781331 2.19647 0.00709046Z" fill="#FAB529"/>
<path fill-rule="evenodd" clip-rule="evenodd" d="M35.9144 18.6215L56.5987 28.8768C59.7792 30.354 60.2397 30.7801 60.5655 32.9604L62.9811 49.16C63.2644 51.0704 62.7615 52.8246 61.1606 53.8473C60.7426 54.1171 60.2468 54.2379 59.758 54.2166L41.3122 53.5774C40.278 53.5632 39.5979 53.407 39.4421 52.3843L34.4835 20.3118C34.3206 19.2962 35.0502 18.5434 35.9144 18.6215Z" fill="#FAB529"/>
<path fill-rule="evenodd" clip-rule="evenodd" d="M68.7613 36.426L88.8647 46.6812C91.4148 47.9454 92.6899 48.3928 92.8315 50.7648C92.8811 51.5674 92.9661 52.8386 92.7465 53.5559C92.4278 54.5786 91.9177 54.8627 91.4502 55.1325C91.0252 55.3811 90.5152 55.4948 90.0193 55.4734L71.4743 54.813C70.4401 54.7988 69.753 54.6425 69.6043 53.6198L67.3233 38.1162C67.1746 37.1007 67.9042 36.3479 68.7613 36.426Z" fill="#FAB529"/>
<path d="M224.325 61.5527V90.2589H220.776V87.0062C219.119 89.3285 216.491 90.4861 213.48 90.4861C207.502 90.4861 203.138 86.2676 203.138 80.0036C203.138 73.7397 207.502 69.5567 213.48 69.5567C216.377 69.5567 218.92 70.6432 220.621 72.8449V61.5527H224.325ZM220.656 80.0107C220.656 75.6359 217.688 72.8164 213.785 72.8164C209.846 72.8164 206.878 75.643 206.878 80.0107C206.878 84.3855 209.846 87.2476 213.785 87.2476C217.688 87.2405 220.656 84.3784 220.656 80.0107Z" fill="#FAB529"/>
<path d="M229.766 63.4135C229.766 62.057 230.849 60.9775 232.273 60.9775C233.704 60.9775 234.781 62.0215 234.781 63.3354C234.781 64.7274 233.739 65.814 232.273 65.814C230.842 65.8069 229.766 64.7629 229.766 63.4135ZM230.417 69.7556H234.122V90.2589H230.417V69.7556Z" fill="#FAB529"/>
<path d="M259.821 69.7555V87.4749C259.821 94.7118 256.152 98 249.21 98C245.47 98 241.687 96.956 239.449 94.9461L241.227 92.0841C243.118 93.7104 246.086 94.7544 249.097 94.7544C253.921 94.7544 256.117 92.5102 256.117 87.8655V86.2391C254.339 88.3697 251.682 89.4137 248.75 89.4137C242.849 89.4137 238.372 85.3869 238.372 79.471C238.372 73.555 242.849 69.5637 248.75 69.5637C251.796 69.5637 254.579 70.6858 256.315 72.9301V69.7555H259.821ZM256.195 79.4639C256.195 75.4797 253.262 72.8093 249.175 72.8093C245.045 72.8093 242.112 75.4797 242.112 79.4639C242.112 83.4126 245.045 86.1539 249.175 86.1539C253.262 86.161 256.195 83.4126 256.195 79.4639Z" fill="#FAB529"/>
<path d="M265.304 63.4135C265.304 62.057 266.388 60.9775 267.812 60.9775C269.243 60.9775 270.319 62.0215 270.319 63.3354C270.319 64.7274 269.278 65.814 267.812 65.814C266.381 65.8069 265.304 64.7629 265.304 63.4135ZM265.956 69.7556H269.661V90.2589H265.956V69.7556Z" fill="#FAB529"/>
<path d="M286.562 89.0587C285.443 90.0245 283.743 90.4933 282.085 90.4933C277.956 90.4933 275.604 88.2135 275.604 84.0731V65.2671H279.308V69.7555H285.174V72.8094H279.308V83.9097C279.308 86.1114 280.428 87.3542 282.51 87.3542C283.594 87.3542 284.635 87.0062 285.408 86.3883L286.562 89.0587Z" fill="#FAB529"/>
<path d="M308.713 69.7555V90.2589H305.164V87.0062C303.506 89.3285 300.878 90.4861 297.868 90.4861C291.889 90.4861 287.526 86.2676 287.526 80.0036C287.526 73.7397 291.889 69.5566 297.868 69.5566C300.765 69.5566 303.308 70.6432 305.008 72.8448V69.7484H308.713V69.7555ZM305.05 80.0107C305.05 75.6359 302.082 72.8164 298.179 72.8164C294.241 72.8164 291.273 75.643 291.273 80.0107C291.273 84.3855 294.241 87.2476 298.179 87.2476C302.075 87.2405 305.05 84.3784 305.05 80.0107Z" fill="#FAB529"/>
<path d="M314.812 84.2222V61.5527H318.516V83.9168C318.516 86.1184 319.558 87.3613 321.683 87.3613C322.377 87.3613 323.071 87.1695 323.496 86.9778L323.688 90.0316C322.837 90.3441 321.91 90.4932 321.024 90.4932C317.05 90.4932 314.812 88.1709 314.812 84.2222Z" fill="#FAB529"/>
<path d="M191.663 74.45C189.403 70.6007 185.684 68.5767 180.577 68.5767C173.684 68.5767 168.343 72.9799 168.343 80.089C168.343 87.198 173.571 91.6012 180.577 91.6012C185.684 91.6012 189.403 89.5772 191.663 85.7279L187.823 83.505C186.159 85.8842 183.984 87.198 180.499 87.198C176.22 87.198 173.252 84.343 173.252 80.0961C173.252 75.771 176.1 72.9941 180.499 72.9941C183.984 72.9941 186.159 74.3009 187.823 76.6871L191.663 74.45ZM146.37 80.0819C146.37 75.5579 148.785 72.8166 153.418 72.8166C158.051 72.8166 160.466 75.5579 160.466 80.0819C160.466 84.6058 158.051 87.3472 153.418 87.3472C148.785 87.3472 146.37 84.6058 146.37 80.0819ZM133.343 69.088V91.0402H138.209V81.7508H141.532C142.282 88.0645 147.312 91.5941 153.411 91.5941C160.02 91.5941 165.368 87.4253 165.368 80.0819C165.368 72.7384 160.02 68.5696 153.411 68.5696C147.673 68.5696 142.877 71.7086 141.73 77.305H138.209V69.088H133.343ZM111.129 69.088L108.196 84.8047C107.955 85.9978 107.204 86.5091 106.057 86.5091H103.684V91.0331H106.298C109.903 91.0331 112.319 89.3286 113.027 85.4367L115.244 73.5267H123.638V91.0331H128.59V69.088H111.129ZM102.147 80.0819C102.147 73.1788 96.5221 68.5696 89.8706 68.5696C83.219 68.5696 77.5946 73.1717 77.5946 80.0819C77.5946 86.9921 83.219 91.5941 89.8706 91.5941C96.5221 91.5941 102.147 86.9921 102.147 80.0819ZM82.5461 80.0819C82.5461 75.5579 85.755 72.8166 89.8706 72.8166C93.9862 72.8166 97.195 75.5579 97.195 80.0819C97.195 84.6058 93.9862 87.3472 89.8706 87.3472C85.755 87.3472 82.5461 84.6058 82.5461 80.0819ZM52.3768 69.088V91.0402H57.2858V73.4983H69.0021V91.0402H73.9536V69.088H52.3768Z" fill="white"/>
</g>
<defs>
<clipPath id="clip0_0_5">
<rect width="323" height="98" fill="white" transform="translate(0.6875)"/>
</clipPath>
</defs>
</svg>
